<svg width="94" height="50" viewBox="0 0 94 50" fill="none" xmlns="http://www.w3.org/2000/svg">
<path d="M11 0H10L0 10V50H11V48H2V10.8284L10.8284 2H11V0Z" fill="#00FFD3"/>
<mask id="path-2-inside-1_141_6498" fill="white">
<path d="M11 0H83V50H11V0Z"/>
</mask>
<path d="M11 2H83V-2H11V2ZM83 48H11V52H83V48Z" fill="#00FFD3" mask="url(#path-2-inside-1_141_6498)"/>
<path d="M17.2862 18.576H20.9822V20.172H19.1342V30.042H20.9822V31.638H17.2862V18.576ZM25.9731 28.39V21.81L27.5831 20.2H32.4551L34.0371 21.782V23.28H32.1331V22.482L31.4751 21.824H28.5911L27.8771 22.538V27.662L28.5911 28.376H31.5031L32.1891 27.69V26.164H30.0891V24.54H34.0371V28.39L32.4271 30H27.5831L25.9731 28.39ZM35.5341 28.39V21.81L37.1441 20.2H42.1841L43.7941 21.81V28.39L42.1841 30H37.1441L35.5341 28.39ZM41.1761 28.376L41.8901 27.662V22.538L41.1761 21.824H38.1521L37.4381 22.538V27.662L38.1521 28.376H41.1761ZM47.5977 21.81H44.6717V20.2H52.4277V21.81H49.5017V30H47.5977V21.81ZM57.632 20.2H59.536V30H57.632V20.2ZM63.7571 21.81H60.8311V20.2H68.5871V21.81H65.6611V30H63.7571V21.81ZM73.0213 31.638V30.042H74.8693V20.172H73.0213V18.576H76.7173V31.638H73.0213Z" fill="#00FFD3"/>
<path d="M83 50H84L94 40V0H83V2H92V39.1716L83.1716 48H83V50Z" fill="#00FFD3"/>
</svg>
