<svg width="104" height="50" viewBox="0 0 104 50" fill="none" xmlns="http://www.w3.org/2000/svg">
<path d="M11 0H10L0 10V50H11V48H2V10.8284L10.8284 2H11V0Z" fill="#00FFD3"/>
<mask id="path-2-inside-1_141_6462" fill="white">
<path d="M11 0H93V50H11V0Z"/>
</mask>
<path d="M11 2H93V-2H11V2ZM93 48H11V52H93V48Z" fill="#00FFD3" mask="url(#path-2-inside-1_141_6462)"/>
<path d="M19.2917 21.81H16.3657V20.2H24.1217V21.81H21.1957V30H19.2917V21.81ZM33.0414 26.752V30H31.1374V27.186L30.2974 26.248H27.2454V30H25.3414V20.2H31.4874L32.9854 21.712V24.68L32.0334 25.646L33.0414 26.752ZM27.2454 24.68H30.6194L31.1094 24.19V22.286L30.6194 21.796H27.2454V24.68ZM37.1913 25.996L33.7053 20.2H35.7913L38.1293 24.218H38.1573L40.4953 20.2H42.5813L39.0953 25.996V30H37.1913V25.996ZM50.2468 20.2H51.9828L55.5668 30H53.6348L52.8368 27.83H49.3928L48.5948 30H46.6628L50.2468 20.2ZM52.4168 26.262L51.1148 22.538H51.0868L49.8268 26.262H52.4168ZM56.3085 28.39V21.81L57.9185 20.2H62.7905L64.3725 21.782V23.28H62.4685V22.482L61.8105 21.824H58.9265L58.2125 22.538V27.662L58.9265 28.376H61.8385L62.5245 27.69V26.164H60.4245V24.54H64.3725V28.39L62.7625 30H57.9185L56.3085 28.39ZM68.6167 20.2H70.3527L73.9367 30H72.0047L71.2067 27.83H67.7627L66.9647 30H65.0327L68.6167 20.2ZM70.7867 26.262L69.4847 22.538H69.4567L68.1967 26.262H70.7867ZM75.0935 20.2H76.9975V30H75.0935V20.2ZM78.9926 20.2H80.7006L85.0686 26.85H85.0966V20.2H86.9306V30H85.2226L80.8546 23.364H80.8266V30H78.9926V20.2Z" fill="#00FFD3"/>
<path d="M93 50H94L104 40V0H93V2H102V39.1716L93.1716 48H93V50Z" fill="#00FFD3"/>
</svg>
